<svg width="22" height="20" viewBox="0 0 22 20" fill="none" xmlns="http://www.w3.org/2000/svg">
<path d="M2.59368 9.75178C2.13586 9.28752 1.77313 8.73488 1.52663 8.12607C1.28012 7.51725 1.15478 6.86445 1.15789 6.20569C1.15789 4.87334 1.67636 3.59556 2.59924 2.65344C3.52211 1.71133 4.7738 1.18205 6.07895 1.18205C7.90842 1.18205 9.50632 2.1986 10.3516 3.7116H11.6484C12.0781 2.94217 12.6999 2.30272 13.4504 1.85838C14.201 1.41404 15.0534 1.18068 15.9211 1.18205C17.2262 1.18205 18.4779 1.71133 19.4008 2.65344C20.3236 3.59556 20.8421 4.87334 20.8421 6.20569C20.8421 7.58867 20.2632 8.86526 19.4063 9.75178L11 18.3215L2.59368 9.75178ZM20.2168 10.591C21.3168 9.45628 22 7.91964 22 6.20569C22 4.55984 21.3595 2.98141 20.2195 1.81762C19.0795 0.653831 17.5333 2.13381e-05 15.9211 2.13381e-05C13.8947 2.13381e-05 12.1 1.00475 11 2.56503C10.4385 1.76893 9.69923 1.12096 8.8434 0.674877C7.98757 0.22879 7.03988 -0.00255828 6.07895 2.13381e-05C4.46671 2.13381e-05 2.92051 0.653831 1.78048 1.81762C0.640459 2.98141 0 4.55984 0 6.20569C0 7.91964 0.683158 9.45628 1.78316 10.591L11 20L20.2168 10.591Z" fill="#686868"/>
</svg>
