<svg width="30" height="30" viewBox="0 0 30 30" fill="none" xmlns="http://www.w3.org/2000/svg">
<path opacity="0.5" d="M0 27.9236L9.83036 17.9571C8.49107 16.0884 7.6942 13.791 7.6942 11.3128C7.6942 5.07703 12.6964 6.61962e-06 18.8438 6.61962e-06C24.9978 -0.0066913 30 5.07033 30 11.3061C30 17.5419 24.9978 22.6189 18.8504 22.6189C16.1853 22.6189 13.7411 21.6678 11.8192 20.0804L2.04241 30L0 27.9236ZM18.8504 20.0067C23.5781 20.0067 27.4286 16.1018 27.4286 11.3061C27.4286 6.51039 23.5781 2.6055 18.8504 2.6055C14.1228 2.6055 10.2723 6.51039 10.2723 11.3061C10.2723 16.1018 14.1161 20.0067 18.8504 20.0067Z" fill="black"/>
</svg>
