<svg width="30" height="30" viewBox="0 0 30 30" fill="none" xmlns="http://www.w3.org/2000/svg">
<path opacity="0.5" d="M22.5714 7.5C22.5714 10.969 19.3117 14 15 14C10.6883 14 7.42857 10.969 7.42857 7.5C7.42857 4.03096 10.6883 1 15 1C19.3117 1 22.5714 4.03096 22.5714 7.5ZM15 18.8125C16.8004 18.8125 18.5166 18.4744 20.0714 17.875H21C25.5461 17.875 29 21.0759 29 24.75V27.1875C29 28.0667 28.1376 29 26.7857 29H3.21429C1.86241 29 1 28.0667 1 27.1875V24.75C1 21.0759 4.45393 17.875 9 17.875H9.92929C11.4884 18.474 13.1984 18.8125 15 18.8125Z" fill="white" stroke="black" stroke-width="2"/>
</svg>
